#!OML:ASF F:\VICON\USERDATA\INSTALL\rory3\rory3.ASF
:FULLY-SPECIFIED
:DEGREES
779
root 5.56298 17.4028 1.59424 20.0008 2.59742 1.26256
lowerback -11.2301 -1.0748 10.8841
upperback -15.0537 -1.84815 1.36332
thorax -10.5589 -2.01224 -4.57467
lowerneck -5.32955 20.2895 10.5835
upperneck 8.08775 26.418 -0.775549
head 4.68078 13.2867 0.0625387
rclavicle -6.75868e-015 -1.11319e-014
rhumerus -7.25562 -30.7041 33.2151
rradius 110.97
rwrist -64.7886
rhand -4.84285 -43.7911
rfingers 7.12502
rthumb 20.9444 -72.6803
lclavicle -6.75868e-015 -1.11319e-014
lhumerus 19.7749 23.1198 -14.9802
lradius 33.4579
lwrist 55.026
lhand -20.867 -13.6898
lfingers 7.12502
lthumb 5.50274 16.2188
rfemur -10.1072 11.4349 -9.41495
rtibia 9.2571
rfoot -16.0937 -20.9687
rtoes 42.2728
lfemur -18.5331 3.58226 -31.1325
ltibia 16.6992
lfoot -17.0636 1.02374
ltoes 9.07284
780
root 5.56092 17.4019 1.58707 20.0602 2.59461 1.29025
lowerback -11.2125 -1.08216 10.8374
upperback -15.1108 -1.84916 1.37338
thorax -10.6339 -2.01259 -4.53487
lowerneck -5.19551 20.2918 10.5791
upperneck 8.03032 26.4382 -0.790422
head 4.64467 13.2977 0.0430086
rclavicle 3.22031e-014 -5.08889e-014
rhumerus -7.16432 -30.6001 33.1651
rradius 110.895
rwrist -64.7626
rhand -5.61397 -43.8582
rfingers 7.12502
rthumb 20.2034 -72.8275
lclavicle 3.22031e-014 -5.08889e-014
lhumerus 19.7896 23.1005 -14.9492
lradius 33.4456
lwrist 55.0106
lhand -20.7556 -13.4786
lfingers 7.12502
lthumb 5.6103 16.4271
rfemur -10.1702 11.3982 -9.46302
rtibia 9.14573
rfoot -15.4358 -21.5738
rtoes 41.1493
lfemur -18.6244 3.59081 -31.1625
ltibia 16.6564
lfoot -17.0096 0.985477
ltoes 9.1666
781
root 5.55712 17.4028 1.57682 20.0803 2.57704 1.38151
lowerback -11.0946 -1.10779 10.6907
upperback -15.1736 -1.85836 1.36446
thorax -10.7661 -2.01015 -4.45742
lowerneck -5.01759 20.2936 10.6361
upperneck 7.95961 26.4599 -0.829591
head 4.60875 13.3101 0.00703513
rclavicle -2.0276e-014 1.74931e-014
rhumerus -7.10263 -30.4919 33.1517
rradius 110.835
rwrist -64.7754
rhand -6.32585 -43.8104
rfingers 7.12502
rthumb 19.5191 -72.8506
lclavicle -2.0276e-014 1.74931e-014
lhumerus 19.7732 23.0142 -14.9798
lradius 33.4682
lwrist 55.1825
lhand -20.427 -13.3306
lfingers 7.12502
lthumb 5.92757 16.5665
rfemur -10.2427 11.3764 -9.56187
rtibia 9.15336
rfoot -15.0144 -21.9196
rtoes 40.4543
lfemur -18.6484 3.5523 -31.25
ltibia 16.5777
lfoot -16.9043 1.02408
ltoes 9.3002
782
root 5.55871 17.4014 1.58102 19.9724 2.45419 1.42407
lowerback -11.0199 -1.07711 10.6599
upperback -15.121 -1.81327 1.32434
thorax -10.7356 -1.98415 -4.48431
lowerneck -5.09773 20.2961 10.6317
upperneck 7.99431 26.453 -0.814332
head 4.62891 13.3062 0.021424
rclavicle 2.70347e-014 4.77083e-015
rhumerus -7.13169 -30.4872 33.2399
rradius 110.767
rwrist -64.8039
rhand -6.52124 -43.6666
rfingers 7.12502
rthumb 19.3312 -72.7257
lclavicle 2.70347e-014 4.77083e-015
lhumerus 19.7227 22.9642 -15.0596
lradius 33.5049
lwrist 55.2516
lhand -20.3383 -13.3058
lfingers 7.12502
lthumb 6.01318 16.5889
rfemur -10.1929 11.5165 -9.6442
rtibia 9.17764
rfoot -14.8805 -21.9495
rtoes 40.2134
lfemur -18.468 3.62626 -31.325
ltibia 16.5006
lfoot -16.9289 1.06202
ltoes 9.52507
783
root 5.56289 17.3983 1.59302 19.8089 2.26819 1.38889
lowerback -11.0232 -1.00977 10.74
upperback -15.0466 -1.73421 1.30432
thorax -10.6375 -1.94803 -4.55332
lowerneck -5.25274 20.3046 10.5631
upperneck 8.25831 26.4433 -0.661691
head 4.70627 13.3079 0.0988663
rclavicle 1.27222e-014 -1.59028e-015
rhumerus -7.06148 -30.4033 33.2179
rradius 110.734
rwrist -64.8101
rhand -6.6307 -43.4075
rfingers 7.12502
rthumb 19.226 -72.4771
lclavicle 1.27222e-014 -1.59028e-015
lhumerus 19.6527 22.8954 -15.1285
lradius 33.5405
lwrist 55.2698
lhand -20.5954 -13.3079
lfingers 7.12502
lthumb 5.76504 16.5937
rfemur -10.0817 11.758 -9.67025
rtibia 9.14774
rfoot -14.8588 -21.9174
rtoes 40.0453
lfemur -18.2148 3.66763 -31.3193
ltibia 16.4603
lfoot -17.0156 1.21308
ltoes 9.63686
784
root 5.56204 17.3978 1.59249 19.8232 2.31567 1.39731
lowerback -11.0462 -1.02934 10.7328
upperback -15.0836 -1.75952 1.31592
thorax -10.6727 -1.96195 -4.53586
lowerneck -5.30024 20.3259 10.5059
upperneck 8.47935 26.4629 -0.517878
head 4.75767 13.3254 0.161799
rclavicle -4.33351e-014 -1.59028e-015
rhumerus -6.95639 -30.2548 33.1322
rradius 110.739
rwrist -64.8374
rhand -6.42042 -43.1436
rfingers 7.12502
rthumb 19.4282 -72.193
lclavicle -4.33351e-014 -1.59028e-015
lhumerus 19.6367 22.8605 -15.1244
lradius 33.5302
lwrist 55.1921
lhand -21.0746 -13.3802
lfingers 7.12502
lthumb 5.30235 16.5334
rfemur -9.97555 11.7123 -9.64649
rtibia 9.01383
rfoot -14.605 -22.0988
rtoes 39.4815
lfemur -18.2412 3.62073 -31.3065
ltibia 16.4687
lfoot -17.0104 1.19072
ltoes 9.60186
785
root 5.56023 17.3994 1.58517 19.9837 2.54788 1.38642
lowerback -11.1248 -1.07438 10.7317
upperback -15.1323 -1.8244 1.32593
thorax -10.6982 -1.99596 -4.52511
lowerneck -5.44593 20.3346 10.4792
upperneck 8.55406 26.4546 -0.459533
head 4.79179 13.3218 0.198416
rclavicle -2.82274e-014 -1.90833e-014
rhumerus -7.03691 -30.2004 33.1998
rradius 110.741
rwrist -64.8261
rhand -6.20611 -42.9104
rfingers 7.12502
rthumb 19.6342 -71.9389
lclavicle -2.82274e-014 -1.90833e-014
lhumerus 19.6802 22.8613 -15.1161
lradius 33.5016
lwrist 55.1366
lhand -21.2303 -13.4758
lfingers 7.12502
lthumb 5.152 16.4416
rfemur -9.96921 11.4503 -9.54182
rtibia 8.92901
rfoot -14.6919 -22.0697
rtoes 39.6678
lfemur -18.4574 3.62106 -31.2639
ltibia 16.4888
lfoot -16.9535 0.939043
ltoes 9.81141
786
root 5.56129 17.3997 1.58276 20.0422 2.58777 1.35157
lowerback -11.1506 -1.0533 10.7645
upperback -15.1399 -1.80064 1.31507
thorax -10.6925 -1.98834 -4.55555
lowerneck -5.53279 20.3196 10.5004
upperneck 8.61263 26.4224 -0.451219
head 4.82372 13.306 0.208883
rclavicle 1.59028e-014 2.54444e-014
rhumerus -7.10963 -30.1457 33.235
rradius 110.766
rwrist -64.862
rhand -6.44133 -42.8834
rfingers 7.12502
rthumb 19.4081 -71.9348
lclavicle 1.59028e-014 2.54444e-014
lhumerus 19.7519 22.9068 -15.082
lradius 33.467
lwrist 55.1031
lhand -20.9196 -13.4445
lfingers 7.12502
lthumb 5.45194 16.4654
rfemur -10.052 11.3988 -9.50157
rtibia 8.97213
rfoot -15.0244 -21.9237
rtoes 40.3583
lfemur -18.5424 3.6454 -31.2357
ltibia 16.5202
lfoot -16.9664 0.88243
ltoes 9.99019
787
root 5.56017 17.3986 1.58455 20.042 2.46735 1.39338
lowerback -11.1243 -1.00795 10.6873
upperback -15.2144 -1.73113 1.27968
thorax -10.7809 -1.95497 -4.54792
lowerneck -5.27133 20.2809 10.5788
upperneck 8.61378 26.3959 -0.450157
head 4.79293 13.3 0.172361
rclavicle 5.52621e-014 3.49861e-014
rhumerus -7.06747 -29.9097 33.235
rradius 110.846
rwrist -64.9099
rhand -6.867 -42.9428
rfingers 7.12502
rthumb 18.9987 -72.0349
lclavicle 5.52621e-014 3.49861e-014
lhumerus 19.8255 22.7917 -15.0514
lradius 33.4845
lwrist 55.2132
lhand -20.3669 -13.2809
lfingers 7.12502
lthumb 5.9856 16.6146
rfemur -10.1173 11.4841 -9.60079
rtibia 8.97908
rfoot -14.9665 -22.0276
rtoes 40.2272
lfemur -18.586 3.59856 -31.2948
ltibia 16.5861
lfoot -17.0165 1.05142
ltoes 9.65374
788
root 5.5575 17.4001 1.57816 20.0917 2.50775 1.41913
lowerback -11.0707 -0.999345 10.6589
upperback -15.3307 -1.7059 1.24068
thorax -10.9495 -1.95392 -4.56862
lowerneck -4.91857 20.2238 10.6496
upperneck 8.52212 26.3528 -0.438213
head 4.71561 13.2868 0.121302
rclavicle 4.37326e-014 -4.29375e-014
rhumerus -7.08152 -29.6576 33.289
rradius 110.918
rwrist -64.8798
rhand -7.05094 -42.8018
rfingers 7.12502
rthumb 18.8218 -71.9111
lclavicle 4.37326e-014 -4.29375e-014
lhumerus 19.8515 22.4494 -15.1562
lradius 33.5656
lwrist 55.516
lhand -20.3975 -13.1477
lfingers 7.12502
lthumb 5.95608 16.7485
rfemur -10.1381 11.4204 -9.60926
rtibia 8.94415
rfoot -15.5914 -21.675
rtoes 41.1625
lfemur -18.6936 3.50828 -31.3001
ltibia 16.6268
lfoot -16.9666 1.11349
ltoes 9.29996
789
root 5.55976 17.4016 1.57028 20.0847 2.65945 1.35589
lowerback -11.0053 -1.01292 10.8103
upperback -15.3349 -1.7214 1.226
thorax -11.0109 -1.98178 -4.66549
lowerneck -4.85603 20.2114 10.6042
upperneck 8.42603 26.344 -0.430452
head 4.66854 13.2819 0.11266
rclavicle 3.4191e-014 6.36111e-015
rhumerus -7.16773 -29.6261 33.338
rradius 110.943
rwrist -64.8068
rhand -6.84942 -42.6275
rfingers 7.12502
rthumb 19.0156 -71.7179
lclavicle 3.4191e-014 6.36111e-015
lhumerus 19.7593 22.2071 -15.3731
lradius 33.6844
lwrist 55.966
lhand -21.1212 -13.1005
lfingers 7.12502
lthumb 5.25732 16.8142
rfemur -10.0895 11.3178 -9.48305
rtibia 8.97251
rfoot -15.9546 -21.4309
rtoes 41.6676
lfemur -18.6759 3.37194 -31.1892
ltibia 16.6079
lfoot -16.9084 1.11729
ltoes 9.4168
790
root 5.5619 17.3999 1.57556 20.0499 2.63253 1.3166
lowerback -11.0555 -0.982962 10.8655
upperback -15.2538 -1.69628 1.21517
thorax -10.8835 -1.96729 -4.71277
lowerneck -5.07419 20.2435 10.5705
upperneck 8.50731 26.3657 -0.431954
head 4.72438 13.2886 0.146074
rclavicle 0 1.74931e-014
rhumerus -7.23211 -29.7215 33.3198
rradius 110.937
rwrist -64.7027
rhand -6.33936 -42.6373
rfingers 7.12502
rthumb 19.5061 -71.6789
lclavicle 0 1.74931e-014
lhumerus 19.6837 22.2641 -15.4898
lradius 33.783
lwrist 56.4253
lhand -21.1834 -13.0144
lfingers 7.12502
lthumb 5.19729 16.9019
rfemur -10.0757 11.3673 -9.45607
rtibia 8.99978
rfoot -15.5789 -21.6441
rtoes 40.9638
lfemur -18.6044 3.28873 -31.1387
ltibia 16.5986
lfoot -16.9106 1.24871
ltoes 9.67798
791
root 5.56066 17.3987 1.58138 20.0614 2.50887 1.36634
lowerback -11.1088 -0.935028 10.7883
upperback -15.2469 -1.64042 1.1637
thorax -10.8293 -1.93262 -4.72911
lowerneck -4.97147 20.2248 10.635
upperneck 8.36103 26.3546 -0.53464
head 4.68391 13.2795 0.0930011
rclavicle -3.06128e-014 1.66979e-014
rhumerus -7.21632 -29.7304 33.2412
rradius 110.931
rwrist -64.7188
rhand -5.00527 -42.6299
rfingers 7.12502
rthumb 20.7884 -71.5363
lclavicle -3.06128e-014 1.66979e-014
lhumerus 19.7203 22.2816 -15.51
lradius 33.8281
lwrist 56.5469
lhand -21.2091 -13.2292
lfingers 7.12502
lthumb 5.17247 16.6877
rfemur -10.1226 11.4476 -9.56406
rtibia 8.96368
rfoot -15.4336 -21.7483
rtoes 40.715
lfemur -18.6166 3.38557 -31.2267
ltibia 16.6018
lfoot -16.8873 1.26882
ltoes 9.73034
